<?xml version="1.0" encoding="UTF-8"?>
<svg width="120" height="120" viewBox="0 0 120 120" fill="none" xmlns="http://www.w3.org/2000/svg">
    <!-- 背景圆形 -->
    <circle cx="60" cy="60" r="58" fill="url(#gradient)" stroke="white" stroke-width="4"/>
    
    <!-- 文字 -->
    <text x="60" y="75" font-family="Arial, sans-serif" font-size="36" font-weight="bold" fill="white" text-anchor="middle">maidle</text>
    
    <!-- 音符图案 -->
    <path d="M45 35C45 35 45 45 45 50C45 55 50 60 55 60C60 60 65 55 65 50C65 45 60 40 55 40C50 40 45 45 45 50" stroke="white" stroke-width="4" stroke-linecap="round"/>
    <path d="M55 60V85" stroke="white" stroke-width="4" stroke-linecap="round"/>
    
    <!-- 装饰性音符 -->
    <path d="M75 45C75 45 75 50 75 52.5C75 55 77.5 57.5 80 57.5C82.5 57.5 85 55 85 52.5C85 50 82.5 47.5 80 47.5C77.5 47.5 75 50 75 52.5" stroke="white" stroke-width="3" stroke-linecap="round"/>
    <path d="M80 57.5V70" stroke="white" stroke-width="3" stroke-linecap="round"/>
    
    <!-- 渐变定义 -->
    <defs>
        <linearGradient id="gradient" x1="0" y1="0" x2="120" y2="120" gradientUnits="userSpaceOnUse">
            <stop offset="0%" stop-color="#6c5ce7"/>
            <stop offset="100%" stop-color="#a29bfe"/>
        </linearGradient>
    </defs>
</svg>